# xmcd
#
# Track frame offsets: 
#        150
#        19554
#        35693
#        56298
#        75115
#        95978
#        114706
#        131984
#        151463
#        172027
#        188660
#        204062
#
# Disc length: 2977 seconds
#
# Revision: 2
# Processed by: cddbd v1.5.2PL0 Copyright (c) Steve Scherf et al.
# Submitted via: ExactAudioCopy v0.95b3
#
DISCID=960b9f0c
DTITLE=Reckless Kelly - The Day
DYEAR=2000
DGENRE=Country
TTITLE0=Floodwater
TTITLE1=Basin Butte Blues
TTITLE2=Come on Over
TTITLE3=Arizona Skies
TTITLE4=What Would You Do
TTITLE5=Lonely All the Time
TTITLE6=Little Mama
TTITLE7=Hard Fight to Win
TTITLE8=Walk Out Now
TTITLE9=Torn Up
TTITLE10=Crazy Eddie's Last Hurrah
TTITLE11=Alice White
EXTD=
EXTT0=
EXTT1=
EXTT2=
EXTT3=
EXTT4=
EXTT5=
EXTT6=
EXTT7=
EXTT8=
EXTT9=
EXTT10=
EXTT11=
PLAYORDER=
